<?xml version="1.0" encoding="utf-8"?>
<!DOCTYPE svg PUBLIC "-//W3C//DTD SVG 20010904//EN" "http://www.w3.org/TR/2001/REC-SVG-20010904/DTD/svg10.dtd">
<svg version="1.0" xmlns="http://www.w3.org/2000/svg" width="566px" height="444px" viewBox="0 0 566 444" preserveAspectRatio="xMidYMid meet">
 <g fill="#6797ea">
  <path d="M0 222 l0 -222 283 0 283 0 0 222 0 222 -283 0 -283 0 0 -222z m353.7 92.4 c8.6 -2 16.9 -5 19.6 -7 1.9 -1.4 1.9 -1.5 0.2 -0.9 -1.1 0.4 -4.9 1.8 -8.4 3.1 -4 1.5 -11.7 3 -20 4 -15.5 1.8 -24.9 1 -38.6 -3.2 -4.4 -1.4 -8.7 -2.7 -9.5 -3 -0.8 -0.2 0.5 0.6 3 1.8 14.7 7 37 9.2 53.7 5.2z m41.4 -21.1 c0.8 -0.9 -0.5 -0.2 -2.8 1.7 -2.4 1.8 -4.3 3.5 -4.3 3.7 0 0.7 5.6 -3.5 7.1 -5.4z m-197.1 -25.2 c1.6 -3.1 1.2 -3.7 -2.4 -3.3 -3.3 0.4 -3.4 0.6 -2.4 2.8 1.3 2.9 3.4 3.1 4.8 0.5z m47 -4.2 c0 -0.5 -1.6 -0.9 -3.5 -0.9 l-3.6 0 1.7 3.2 1.7 3.2 1.8 -2.3 c1.1 -1.3 1.9 -2.7 1.9 -3.2z m176.8 -7.9 c6.5 -16.3 8.6 -33.4 5.8 -47.9 -1.8 -9.2 -6.9 -24.9 -8.7 -26.5 -0.9 -0.8 -1 -0.6 -0.4 0.9 7 18.7 7.9 24.4 7.2 44.2 -0.5 15.7 -2 22.7 -7.1 33.9 -1.4 3.1 -2.6 5.9 -2.6 6.3 0 1.3 3.7 -5.6 5.8 -10.9z m-64.1 5.5 c-0.4 -0.8 -1.1 -1.5 -1.7 -1.5 -0.6 0 -0.6 0.7 0.2 2 1.4 2.2 2.4 1.9 1.5 -0.5z m-135.8 -40.7 c0 -1.3 -0.4 -3.2 -0.9 -4.3 -0.8 -2.1 -0.7 -2.3 -2.9 3.8 -1 2.5 -0.9 2.7 1.4 2.7 1.9 0 2.5 -0.5 2.4 -2.2z m86.6 -87.9 c5.4 -1.6 10.8 -2.2 23 -2.6 14.1 -0.4 17 -0.3 24.2 1.6 10 2.6 11.3 2.6 4.8 0 -9.8 -3.8 -21.4 -5.3 -32.7 -4.1 -8.9 1 -26.8 5.5 -26.8 6.8 0 0.6 -0.2 0.6 7.5 -1.7z"/>
 </g>
 <g fill="#ffffff">
  <path d="M319 318.5 c-22.6 -4.3 -38.9 -12.5 -53.3 -26.8 -4.3 -4.3 -4.4 -6.1 -0.4 -8.5 2.8 -1.7 2.9 -1.7 5.8 1.6 7.6 8.5 21.6 17.1 35.1 21.6 7.5 2.5 9.6 3 18.3 4.2 2.8 0.3 5.7 0.7 6.5 0.9 1.9 0.3 18.3 -1.6 25 -3 1.4 -0.2 5 -1.4 8 -2.6 3 -1.1 6.4 -2.3 7.5 -2.6 1.1 -0.3 5.8 -3.1 10.5 -6.2 18.8 -12.3 31.5 -29.6 38.2 -51.9 2.5 -8.6 3.5 -28.2 1.9 -37.8 -2.6 -14.8 -9.2 -29.3 -19 -41.5 -13.2 -16.3 -26.9 -24.9 -48.2 -30.4 -27.7 -7.1 -60.8 1.5 -80.9 21.1 l-6.5 6.3 -3.4 -2.8 -3.4 -2.8 5 -4.9 c7.3 -7.2 9.7 -9.1 17.6 -13.7 19.7 -11.5 43.6 -16.7 63.4 -13.8 15 2.1 32.9 9.3 44.6 17.9 26.7 19.6 41.2 48.4 40.6 80.7 -0.3 12.8 -1.1 17.7 -4.5 28.3 -4.8 14.5 -12.6 27.4 -23.8 39.1 -12.8 13.3 -27 21.3 -47.1 26.7 -7.7 2.1 -28.9 2.6 -37.5 0.9z"/>
  <path d="M307.2 274 c-2.2 -0.9 -2.3 -2.4 -0.6 -8 1 -3.1 1.4 -9.1 2 -31 0.7 -24.5 1.3 -55.3 1.4 -61.2 0 -4.3 1.9 -5 5.7 -2.3 1.8 1.3 2 2 1.3 4.8 -1 3.4 -2.8 29 -3.1 42.3 -0.2 8.6 0.3 10.4 2.8 10.4 1.9 0 16.6 -12.6 31.7 -27.3 3.7 -3.6 4.1 -3.7 5.3 -2.1 0.7 1 1.3 2.4 1.3 3.2 0 1.4 -3.6 5.2 -4.9 5.2 -0.3 0 -1.7 1 -3.1 2.3 -1.4 1.2 -5.4 4.4 -9 6.9 -3.6 2.6 -7.7 5.9 -9.3 7.5 l-2.7 3 5.7 5.5 c8.9 8.6 20.3 18.6 25.1 22.1 2.3 1.7 4.5 4.1 4.8 5.3 0.7 2.9 -1.4 10.4 -2.9 10.4 -0.7 0 -3.9 -3.9 -7.2 -8.7 -3.3 -4.8 -10.8 -13.6 -16.6 -19.5 -11.7 -11.8 -13.6 -12.7 -18.5 -8.4 -2.4 2 -2.9 3.4 -3.5 9.7 -0.4 4.1 -0.5 12 -0.2 17.6 0.5 7.5 0.3 10.6 -0.7 11.8 -1.4 1.7 -1.6 1.7 -4.8 0.5z"/>
  <path d="M189.5 268.8 c-0.9 -2.4 -2.4 -5.5 -3.2 -7 -0.8 -1.6 -1.1 -2.8 -0.7 -2.8 0.3 0 0.2 -0.6 -0.4 -1.2 -0.5 -0.7 -1.9 -4.2 -3.1 -7.8 -1.2 -3.6 -2.6 -7.4 -3.1 -8.5 -2.4 -5.5 -12 -32 -12 -33.2 0 -1 1 -1.3 3.7 -1.1 3.5 0.3 3.7 0.5 4.8 5.6 0.7 2.9 1.3 5.4 1.3 5.5 0.3 0.9 1.4 4.1 3.2 9.7 1.2 3.6 2.6 7.4 3 8.5 2.5 6 7 18.8 7 19.8 0 0.7 0.8 2.2 1.8 3.5 1.5 2 2.2 2.2 4.5 1.3 1.5 -0.6 3.4 -2.5 4.2 -4.3 1.5 -3.3 12.4 -32.4 12.9 -34.3 0.8 -3.3 3 -9.2 3.9 -10.2 0.5 -0.7 2 -1.3 3.3 -1.3 2.4 0 4 2.4 4.7 6.9 0.1 0.9 0.5 2.1 0.8 2.6 0.7 1 3.9 10.7 4.3 12.8 0.2 0.7 0.6 1.9 0.9 2.7 0.3 0.8 2 6.1 3.6 11.8 3.6 12.3 3.6 12.2 6.6 12.2 2 0 3 -1.1 5.4 -6.4 3.4 -7.1 5.5 -12.6 7.7 -20.1 0.8 -2.7 1.8 -5.7 2.2 -6.5 0.5 -0.8 1.9 -5.5 3.3 -10.4 2.5 -9.1 3.3 -10.2 7.2 -9.2 5.3 1.4 5.3 1.9 0.8 11.3 -5.1 10.5 -5.6 11.6 -11.1 25.8 -2.4 6.1 -4.6 11.5 -5 12 -0.4 0.6 -1.7 3.8 -3 7.3 -2.2 6 -4.9 9.2 -7.7 9.2 -3 0 -5.3 -4.8 -11.9 -24.9 -3.9 -12 -7.5 -21.6 -8.3 -21.9 -2.3 -0.9 -4.3 1.1 -6.3 6.3 -1 2.8 -2.3 5.9 -2.7 7 -0.5 1.1 -3.1 8.3 -5.6 16 -6.1 18.2 -5.7 17.5 -10.9 17.5 -4.1 0 -4.4 -0.2 -6.1 -4.2z"/>
 </g>
</svg>