<?xml version="1.0" encoding="utf-8"?>
<!DOCTYPE svg PUBLIC "-//W3C//DTD SVG 20010904//EN" "http://www.w3.org/TR/2001/REC-SVG-20010904/DTD/svg10.dtd">
<svg version="1.0" xmlns="http://www.w3.org/2000/svg" width="272px" height="192px" viewBox="0 0 272 192" preserveAspectRatio="xMidYMid meet">
 <g fill="#6797ea">
  <path d="M0 96 l0 -96 76.5 0 c72.4 0 76.5 0.1 76.5 1.8 0 1.3 -1.9 2.3 -7.6 4 -9.7 3 -9.2 3.8 0.6 1.1 5.5 -1.5 11.7 -2.2 23 -2.6 13.6 -0.4 16.5 -0.2 23.9 1.7 9.7 2.5 11.9 2.2 3.1 -0.5 -4.5 -1.4 -6 -2.3 -6 -3.7 0 -1.7 1.8 -1.8 41 -1.8 l41 0 0 96 0 96 -41 0 c-35.8 0 -41 -0.2 -41 -1.5 0 -0.9 0.9 -1.5 2.5 -1.5 1.4 0 2.5 -0.4 2.5 -0.8 0 -0.5 2.7 -1.7 5.9 -2.7 3.3 -1 7.2 -2.7 8.8 -3.7 1.7 -1.2 2 -1.7 0.8 -1.3 -1.1 0.4 -4.7 1.8 -8.1 3 -6.3 2.4 -15.1 4 -27.1 5 -10.5 0.9 -28 -1.8 -37.7 -5.9 -2.2 -0.9 -4.1 -1.5 -4.3 -1.2 -0.6 0.6 12.5 5.6 14.7 5.6 1.1 0 2 0.5 2 1 0 0.6 1.1 1 2.5 1 1.6 0 2.5 0.6 2.5 1.5 0 1.3 -9.3 1.5 -77.5 1.5 l-77.5 0 0 -96z m231 72.4 c0 -0.3 -1.3 0.4 -3 1.6 -1.6 1.2 -3 2.4 -3 2.6 0 0.3 1.4 -0.4 3 -1.6 1.7 -1.2 3 -2.4 3 -2.6z m-196 -27 c0.6 -1.4 1 -2.6 1 -2.8 0 -0.1 -1.5 0 -3.4 0.2 -3.3 0.4 -3.4 0.6 -2.4 2.8 1.5 3.1 3.6 3.1 4.8 -0.2z m219.2 -1.6 c10.2 -19.3 13.8 -39.2 10.4 -57.8 -1.8 -9.4 -6.8 -24.7 -8.8 -26.5 -0.8 -0.7 -0.9 -0.4 -0.3 1 7 18.8 8 24.5 7.2 44.2 -0.6 16.4 -2.2 23.5 -8.1 36 -3.8 7.9 -4 9.9 -0.4 3.1z m-172.2 -1.9 c0 -0.5 -1.6 -0.9 -3.5 -0.9 l-3.6 0 1.7 3.2 1.7 3.2 1.8 -2.3 c1.1 -1.3 1.9 -2.7 1.9 -3.2z m112.7 -2.4 c-0.4 -0.8 -1.1 -1.5 -1.7 -1.5 -0.6 0 -0.6 0.7 0.2 2 1.4 2.2 2.4 1.9 1.5 -0.5z m-135.8 -40.7 c0 -1.3 -0.4 -3.2 -0.9 -4.3 -0.8 -2.1 -0.7 -2.3 -2.9 3.8 -1 2.5 -0.9 2.7 1.4 2.7 1.9 0 2.5 -0.5 2.4 -2.2z"/>
 </g>
 <g fill="#fefeff">
  <path d="M144.5 190.1 c-11.7 -3.4 -24.3 -9.7 -33.1 -16.6 -5.8 -4.5 -12.4 -11.2 -12.4 -12.7 0 -0.7 1.2 -2.3 2.7 -3.6 l2.7 -2.3 5 5.1 c10.9 11.1 27.9 20 44.7 23.5 3.2 0.7 12.5 1.8 14.9 1.8 3.3 0.1 15.9 -1.1 19 -1.8 1.4 -0.3 3.6 -0.7 5 -1 1.4 -0.3 5 -1.4 8 -2.6 3 -1.1 6.4 -2.3 7.5 -2.6 1.1 -0.3 5.8 -3.1 10.5 -6.2 24.9 -16.3 39.3 -41.4 40.7 -70.7 0.8 -16.5 -1.4 -27.9 -8 -42.4 -4.6 -9.8 -8.8 -15.7 -18.3 -25.4 -11.3 -11.7 -23.7 -18.5 -41.9 -23.2 -12 -3.1 -29.8 -2.9 -42.5 0.5 -15.6 4.2 -29.3 11.7 -39.1 21.5 l-5.6 5.6 -3.3 -2.9 -3.3 -2.8 5 -4.9 c11.9 -11.8 23.4 -18.4 42.2 -24.4 5.5 -1.7 9.1 -2 26.5 -2 19.6 0 20.5 0.1 28.7 2.9 11.9 4 24.7 10.5 30.8 15.6 12 10 18.7 17.9 26.1 30.5 15.3 26 15.9 64.7 1.4 91.5 -6.9 12.8 -20.5 28.7 -30.2 35.4 -6.2 4.3 -17.7 10.3 -24.7 12.9 -6.7 2.4 -8 2.6 -30 2.8 -19.3 0.2 -24 -0.1 -29 -1.5z"/>
  <path d="M144.2 147.9 c-2.2 -0.9 -2.3 -2.3 -0.6 -7.9 1.4 -4.1 2.6 -39 3.3 -92.2 0.1 -4.3 1.6 -4.8 5.5 -2.3 2.1 1.4 2.3 2 1.5 5.4 -0.9 4 -2.7 29.3 -3 42.2 -0.2 8.1 0.3 9.9 2.8 9.9 1.9 0 15.8 -12 32.2 -27.8 3.3 -3.2 3.6 -3.3 4.8 -1.6 0.7 1 1.3 2.4 1.3 3.2 0 1.4 -3.6 5.2 -4.9 5.2 -0.3 0 -1.7 1 -3.1 2.3 -1.4 1.2 -5.4 4.4 -9 6.9 -3.6 2.6 -7.7 5.9 -9.3 7.5 l-2.7 3 5.7 5.5 c8.9 8.6 20.3 18.6 25.1 22.1 2.3 1.7 4.5 4.1 4.8 5.3 0.7 2.9 -1.4 10.4 -2.9 10.4 -0.7 0 -3.9 -3.9 -7.2 -8.7 -3.3 -4.8 -10.8 -13.6 -16.7 -19.5 -11.7 -11.8 -13.5 -12.7 -18.5 -8.4 -2.3 2 -2.8 3.4 -3.4 9.2 -0.3 3.8 -0.4 11.9 -0.1 18 0.5 10.2 0.3 11.3 -1.4 12.2 -1.1 0.6 -2.8 0.6 -4.2 0.1z"/>
  <path d="M26.5 142.8 c-0.9 -2.4 -2.4 -5.5 -3.2 -7 -0.8 -1.6 -1.1 -2.8 -0.7 -2.8 0.3 0 0.2 -0.6 -0.4 -1.2 -0.5 -0.7 -1.9 -4.2 -3.1 -7.8 -1.2 -3.6 -2.6 -7.4 -3.1 -8.5 -1.8 -4.1 -10.9 -29.1 -11.6 -31.8 -0.6 -2.8 -0.6 -2.8 3.2 -2.5 3.7 0.3 3.8 0.4 4.9 5.6 0.7 2.8 1 5.2 0.7 5.2 -0.2 0 0 0.6 0.5 1.3 0.6 0.6 2 4.4 3.2 8.2 1.3 3.9 2.6 7.9 3.1 9 0.5 1.1 2.3 6.1 4 11 4.3 12.2 5.4 14.1 8.2 13.7 1.3 -0.1 2.8 -0.8 3.5 -1.5 1 -0.9 13.6 -33.1 14.7 -37.2 0.8 -3.5 3 -9.2 3.9 -10.2 0.5 -0.7 2 -1.3 3.3 -1.3 2.4 0 4 2.4 4.7 6.9 0.1 0.9 0.5 2.1 0.8 2.6 0.7 1 3.9 10.7 4.3 12.8 0.2 0.7 0.6 1.9 0.9 2.7 0.3 0.8 1.7 5.6 3.2 10.5 3.7 12.8 4.1 13.5 6.9 13.5 2 0 3 -1.1 5.5 -6.5 3.4 -7.2 5.4 -12.4 7.7 -20 0.8 -2.7 1.9 -5.9 2.3 -7 0.5 -1.1 2 -5.8 3.2 -10.4 2.5 -8.6 3.4 -9.7 7.2 -8.7 5.3 1.4 5.3 1.9 0.8 11.3 -4.9 10.1 -5.6 11.7 -10.1 23.3 -1.8 4.7 -4.3 10.8 -5.5 13.5 -1.2 2.8 -3 7.1 -3.9 9.8 -2.7 7.2 -7.9 9.9 -11 5.5 -0.8 -1.1 -4.6 -11.5 -8.3 -23.1 -3.8 -11.9 -7.4 -21.2 -8.2 -21.5 -2.3 -0.9 -4.3 1.1 -6.3 6.3 -1 2.8 -2.3 5.9 -2.8 7 -0.5 1.1 -2.7 7.4 -4.9 14 -6.4 19.5 -6.4 19.5 -11.5 19.5 -4.1 0 -4.4 -0.2 -6.1 -4.2z"/>
 </g>
</svg>